<?xml version="1.0" encoding="UTF-8" standalone="no"?>
<!-- Created with Inkscape (http://www.inkscape.org/) -->

<svg
   xmlns:dc="http://purl.org/dc/elements/1.1/"
   xmlns:cc="http://creativecommons.org/ns#"
   xmlns:rdf="http://www.w3.org/1999/02/22-rdf-syntax-ns#"
   xmlns:svg="http://www.w3.org/2000/svg"
   xmlns="http://www.w3.org/2000/svg"
   xmlns:sodipodi="http://sodipodi.sourceforge.net/DTD/sodipodi-0.dtd"
   xmlns:inkscape="http://www.inkscape.org/namespaces/inkscape"
   width="210mm"
   height="297mm"
   viewBox="0 0 210 297"
   version="1.1"
   id="svg8"
   inkscape:version="0.92.3 (2405546, 2018-03-11)"
   sodipodi:docname="logo.svg">
  <defs
     id="defs2" />
  <sodipodi:namedview
     id="base"
     pagecolor="#ffffff"
     bordercolor="#666666"
     borderopacity="1.0"
     inkscape:pageopacity="0.0"
     inkscape:pageshadow="2"
     inkscape:zoom="0.98994949"
     inkscape:cx="493.88168"
     inkscape:cy="536.47147"
     inkscape:document-units="mm"
     inkscape:current-layer="layer1"
     showgrid="false"
     objecttolerance="24"
     inkscape:window-width="1920"
     inkscape:window-height="1012"
     inkscape:window-x="0"
     inkscape:window-y="0"
     inkscape:window-maximized="1" />
  <metadata
     id="metadata5">
    <rdf:RDF>
      <cc:Work
         rdf:about="">
        <dc:format>image/svg+xml</dc:format>
        <dc:type
           rdf:resource="http://purl.org/dc/dcmitype/StillImage" />
        <dc:title></dc:title>
      </cc:Work>
    </rdf:RDF>
  </metadata>
  <g
     inkscape:label="Calque 1"
     inkscape:groupmode="layer"
     id="layer1">
    <path
       style="fill:#00d093;fill-opacity:1;stroke:none;stroke-width:0.26458332;stroke-opacity:1"
       d="m 142.0636,144.33117 c -3.52837,0.017 -6.99263,1.9643 -8.59689,5.52162 -0.32864,0.72871 -0.61411,1.34902 -0.63511,1.37822 -0.0209,0.0292 -1.32681,-0.59761 -2.90214,-1.3932 -5.23677,-2.64473 -8.4861,-3.44338 -13.91957,-3.42098 -14.05773,0.0578 -24.689436,5.44678 -31.540707,15.9892 -3.468,5.33639 -5.796376,12.40411 -6.398575,19.42052 -0.564481,6.57705 0.764283,9.87378 5.001762,12.41372 3.783449,2.26782 9.773828,3.28743 20.96048,3.56722 v -5.2e-4 c 10.8001,0.15453 10.78009,0.14272 18.71203,0.24082 l 13.44569,-0.008 c 19.91055,-0.0117 23.1556,-0.2459 26.29711,-1.89911 2.2929,-1.20663 3.51017,-3.20706 3.75739,-6.1743 0.45235,-5.42939 -3.64677,-14.87409 -8.95501,-20.63285 -0.51005,-0.55332 -0.88591,-1.0319 -0.83561,-1.0635 2.57156,-1.61861 3.48647,-2.54505 4.49068,-4.54443 1.74073,-3.46569 1.07577,-7.66665 -1.68,-10.61278 -2.02106,-2.16067 -4.48576,-3.11311 -7.5184,-2.90525 -4.30195,0.29488 -8.12444,3.72796 -8.59741,7.72149 -0.0779,0.65736 -0.21399,1.19476 -0.30179,1.19476 -0.0878,0 -0.50239,-0.42674 -0.92191,-0.94878 l -0.76274,-0.9493 0.37982,-1.20458 c 1.04693,-3.32124 4.17115,-6.34482 7.62434,-7.37887 l 0.91313,-0.27389 -1.25833,-1.2578 c -1.89983,-1.89851 -4.3441,-2.79086 -6.75824,-2.77916 z m 6.78305,25.68939 c 2.698,0.0563 5.1614,2.70671 4.36821,5.65237 -0.2863,1.06326 -1.36433,2.42652 -2.28875,2.89388 -2.17491,1.09956 -4.92426,0.1933 -6.03839,-1.99058 -0.70349,-1.37897 -0.54492,-3.48795 0.35036,-4.66173 0.358,-0.46937 0.967,-1.04556 1.35341,-1.28055 0.72591,-0.44144 1.49971,-0.62919 2.25516,-0.61339 z"
       id="path859"
       inkscape:connector-curvature="0"
       inkscape:export-xdpi="96"
       inkscape:export-ydpi="96" />
    <path
       style="fill:#00aa93;fill-opacity:1;stroke:none;stroke-width:0.26458332px;stroke-linecap:butt;stroke-linejoin:miter;stroke-opacity:1"
       d="m 142.0636,144.33117 c -3.52837,0.017 -6.99263,1.96429 -8.59689,5.52163 -0.32864,0.7287 -0.61411,1.34901 -0.63511,1.37821 -0.0209,0.0292 -1.32681,-0.59761 -2.90214,-1.3932 -5.23677,-2.64473 -8.4861,-3.44391 -13.91957,-3.4215 -4.49261,0.0185 -8.63358,0.58448 -12.41474,1.6862 l 16.91111,28.31869 37.59564,21.03334 c 2.03746,-0.28384 3.22099,-0.70116 4.38578,-1.31413 2.2929,-1.20663 3.51017,-3.20705 3.75739,-6.1743 0.45235,-5.42939 -3.64677,-14.87409 -8.95501,-20.63285 -0.51005,-0.55332 -0.88591,-1.0319 -0.83561,-1.0635 2.57156,-1.61861 3.48647,-2.54505 4.49068,-4.54443 1.74073,-3.46569 1.07577,-7.66665 -1.68,-10.61278 -2.02106,-2.16067 -4.48576,-3.11311 -7.5184,-2.90525 -4.30195,0.29488 -8.12444,3.72796 -8.59741,7.72149 -0.0779,0.65736 -0.21399,1.19476 -0.30179,1.19476 -0.0878,0 -0.50239,-0.42674 -0.92191,-0.94878 l -0.76274,-0.9493 0.37982,-1.20458 c 1.04693,-3.32125 4.17115,-6.34482 7.62434,-7.37887 l 0.91313,-0.27389 -1.25833,-1.2578 c -1.89983,-1.89851 -4.3441,-2.79085 -6.75824,-2.77916 z m 6.78305,25.68939 c 2.698,0.0563 5.1614,2.70672 4.36821,5.65237 -0.2863,1.06326 -1.36433,2.42652 -2.28875,2.89388 -2.17491,1.09957 -4.92426,0.1933 -6.03839,-1.99058 -0.70349,-1.37897 -0.54492,-3.48795 0.35036,-4.66173 0.358,-0.46937 0.967,-1.04556 1.35341,-1.28055 0.72591,-0.44144 1.49971,-0.62919 2.25516,-0.61339 z"
       id="path869"
       inkscape:connector-curvature="0"
       inkscape:export-xdpi="96"
       inkscape:export-ydpi="96" />
    <path
       style="fill:#00dfbe;fill-opacity:1;stroke:none;stroke-width:0.26458332px;stroke-linecap:butt;stroke-linejoin:miter;stroke-opacity:1"
       d="m 103.59515,148.10251 c -8.064559,2.34247 -14.488394,7.13061 -19.155943,14.31282 -3.467999,5.33639 -5.796375,12.40359 -6.398574,19.42001 -0.05727,0.66724 -0.08921,1.29261 -0.106453,1.89497 l 42.5421,-7.29981 z"
       id="path926"
       inkscape:connector-curvature="0"
       inkscape:export-xdpi="96"
       inkscape:export-ydpi="96" />
  </g>
</svg>
